<svg xmlns="http://www.w3.org/2000/svg" viewBox="0 0 280 80" fill="none">
  <!-- Yellow swoosh/hand -->
  <path d="M40 72C40 72 10 60 8 45C6 30 25 28 35 35C45 42 55 50 70 52C85 54 95 48 95 48C95 48 80 65 55 72C45 74 40 72 40 72Z" fill="#FFD700"/>
  <path d="M70 52C85 54 100 46 100 46C100 46 90 58 72 62C60 65 50 62 50 62" fill="#FFD700"/>
  <!-- Ambulance body -->
  <g transform="translate(15, 5)">
    <rect x="10" y="15" width="65" height="30" rx="4" fill="#4A4A4A"/>
    <rect x="55" y="10" width="25" height="35" rx="4" fill="#4A4A4A"/>
    <!-- Windows -->
    <rect x="14" y="19" width="12" height="12" rx="2" fill="#B0B0B0"/>
    <rect x="30" y="19" width="12" height="12" rx="2" fill="#B0B0B0"/>
    <rect x="46" y="19" width="12" height="12" rx="2" fill="#B0B0B0"/>
    <rect x="60" y="14" width="16" height="16" rx="2" fill="#B0B0B0"/>
    <!-- Cross -->
    <rect x="65" y="5" width="6" height="14" rx="1" fill="#FFD700"/>
    <rect x="62" y="9" width="12" height="5" rx="1" fill="#FFD700"/>
    <!-- Speed lines -->
    <line x1="2" y1="22" x2="10" y2="22" stroke="#4A4A4A" stroke-width="2" stroke-linecap="round"/>
    <line x1="0" y1="28" x2="10" y2="28" stroke="#4A4A4A" stroke-width="2" stroke-linecap="round"/>
    <line x1="3" y1="34" x2="10" y2="34" stroke="#4A4A4A" stroke-width="2" stroke-linecap="round"/>
    <!-- Wheels -->
    <circle cx="25" cy="47" r="7" fill="#4A4A4A"/>
    <circle cx="25" cy="47" r="3.5" fill="#B0B0B0"/>
    <circle cx="65" cy="47" r="7" fill="#4A4A4A"/>
    <circle cx="65" cy="47" r="3.5" fill="#B0B0B0"/>
  </g>
  <!-- Text -->
  <text x="110" y="38" font-family="Arial, Helvetica, sans-serif" font-weight="900" font-size="28" fill="#333333">Connect Care</text>
  <text x="110" y="58" font-family="Arial, Helvetica, sans-serif" font-weight="400" font-size="12" letter-spacing="3" fill="#555555">TRANSPORTATION SERVICES</text>
</svg>